<svg
  width="37"
  height="44"
  viewBox="0 0 37 44"
  fill="none"
  >
    <path
      d="M25 3.66666L0 3.66687L0 0.000222166L25 1.44734e-05V3.66666Z"
      fill="white"></path>
    <path
      d="M25 23.2221L0 23.2224L0 19.5557L25 19.5555V23.2221Z"
      fill="white"></path>
    <path
      d="M25 13.4443L0 13.4445L0 9.7779L25 9.77769V13.4443Z"
      fill="white"></path>
    <path
      d="M25 3.66682V0H29H29.0001C29.5008 0 35.3 0 36.5 3.66665C38.5 9.77757 33.5 11.6111 33.5 11.6111C33.5 11.6111 38.5 13.4445 36.5 19.5555C35.3001 23.2219 29.5 23.2221 29 23.2221H25V19.5558C25 19.5558 33.5 19.5558 33.5 16.4999C33.5 13.4441 29 13.4441 29 13.4441V9.77743C29 9.77743 33.5 9.77743 33.5 6.72219C33.5 3.05554 25 3.66682 25 3.66682Z"
      fill="white"></path>
    <path
      d="M6.804 40.2224L5.436 35.9024L4.188 40.2224H2.004L0.072 33.7064H2.22L3.324 38.2784L4.512 33.7064H6.528L7.8 38.3024L8.82 33.7064H10.872L8.988 40.2224H6.804ZM11.1876 36.9584C11.1876 36.2944 11.3316 35.7064 11.6196 35.1944C11.9156 34.6824 12.3196 34.2824 12.8316 33.9944C13.3516 33.6984 13.9436 33.5504 14.6076 33.5504C15.2876 33.5504 15.8836 33.6984 16.3956 33.9944C16.9076 34.2824 17.3076 34.6824 17.5956 35.1944C17.8836 35.7064 18.0276 36.2944 18.0276 36.9584C18.0276 37.6144 17.8836 38.2024 17.5956 38.7224C17.3076 39.2344 16.9076 39.6384 16.3956 39.9344C15.8836 40.2304 15.2876 40.3784 14.6076 40.3784C13.9436 40.3784 13.3516 40.2304 12.8316 39.9344C12.3196 39.6384 11.9156 39.2344 11.6196 38.7224C11.3316 38.2024 11.1876 37.6144 11.1876 36.9584ZM14.6076 38.6624C14.8956 38.6624 15.1516 38.5984 15.3756 38.4704C15.5996 38.3344 15.7716 38.1504 15.8916 37.9184C16.0196 37.6784 16.0836 37.3944 16.0836 37.0664C16.0836 36.7544 16.0196 36.4784 15.8916 36.2384C15.7636 35.9984 15.5876 35.8104 15.3636 35.6744C15.1396 35.5304 14.8876 35.4584 14.6076 35.4584C14.3276 35.4584 14.0756 35.5304 13.8516 35.6744C13.6276 35.8104 13.4516 35.9984 13.3236 36.2384C13.2036 36.4784 13.1436 36.7544 13.1436 37.0664C13.1436 37.3864 13.2036 37.6664 13.3236 37.9064C13.4516 38.1464 13.6276 38.3344 13.8516 38.4704C14.0756 38.5984 14.3276 38.6624 14.6076 38.6624ZM19.071 40.2224V33.7064H20.895V34.5704H20.943C21.111 34.2184 21.383 33.9624 21.759 33.8024C22.143 33.6344 22.599 33.5504 23.127 33.5504L23.007 35.6744C22.239 35.6504 21.699 35.8024 21.387 36.1304C21.083 36.4504 20.931 36.9864 20.931 37.7384V40.2224H19.071ZM27.078 35.4584C26.79 35.4584 26.53 35.5264 26.298 35.6624C26.066 35.7984 25.882 35.9864 25.746 36.2264C25.61 36.4584 25.542 36.7384 25.542 37.0664C25.542 37.3944 25.606 37.6784 25.734 37.9184C25.87 38.1584 26.054 38.3424 26.286 38.4704C26.526 38.5984 26.79 38.6624 27.078 38.6624C27.374 38.6624 27.638 38.5984 27.87 38.4704C28.11 38.3424 28.298 38.1584 28.434 37.9184C28.57 37.6784 28.638 37.3904 28.638 37.0544C28.638 36.7184 28.57 36.4344 28.434 36.2024C28.298 35.9624 28.11 35.7784 27.87 35.6504C27.638 35.5224 27.374 35.4584 27.078 35.4584ZM30.546 31.1024V40.2224H28.71V39.4304H28.674C28.482 39.7184 28.21 39.9504 27.858 40.1264C27.506 40.2944 27.11 40.3784 26.67 40.3784C26.094 40.3784 25.57 40.2464 25.098 39.9824C24.634 39.7104 24.266 39.3184 23.994 38.8064C23.722 38.2944 23.586 37.6744 23.586 36.9464C23.586 36.2264 23.726 35.6144 24.006 35.1104C24.294 34.5984 24.67 34.2104 25.134 33.9464C25.606 33.6824 26.122 33.5504 26.682 33.5504C27.106 33.5504 27.49 33.6384 27.834 33.8144C28.186 33.9904 28.454 34.2504 28.638 34.5944H28.686V31.1024H30.546ZM31.6502 39.9704L31.7822 38.4944C31.9982 38.5824 32.2942 38.6624 32.6702 38.7344C33.0462 38.8064 33.4382 38.8424 33.8462 38.8424C34.1662 38.8424 34.4222 38.8104 34.6142 38.7464C34.8142 38.6744 34.9142 38.5504 34.9142 38.3744C34.9142 38.2784 34.8822 38.1984 34.8182 38.1344C34.7542 38.0704 34.6302 38.0104 34.4462 37.9544C34.2622 37.8904 33.9862 37.8184 33.6182 37.7384C33.2022 37.6424 32.8422 37.5184 32.5382 37.3664C32.2422 37.2144 32.0142 37.0064 31.8542 36.7424C31.7022 36.4784 31.6262 36.1384 31.6262 35.7224C31.6262 35.3064 31.7302 34.9384 31.9382 34.6184C32.1462 34.2904 32.4582 34.0304 32.8742 33.8384C33.2902 33.6464 33.8022 33.5504 34.4102 33.5504C34.8182 33.5504 35.1862 33.5864 35.5142 33.6584C35.8502 33.7304 36.1142 33.8104 36.3062 33.8984L36.1742 35.7704C35.9342 35.6824 35.6542 35.6104 35.3342 35.5544C35.0222 35.4904 34.7022 35.4584 34.3742 35.4584C34.0542 35.4584 33.8182 35.4904 33.6662 35.5544C33.5222 35.6184 33.4502 35.7264 33.4502 35.8784C33.4502 35.9744 33.4782 36.0544 33.5342 36.1184C33.5982 36.1744 33.7182 36.2264 33.8942 36.2744C34.0702 36.3224 34.3302 36.3784 34.6742 36.4424C35.2982 36.5544 35.7862 36.7504 36.1382 37.0304C36.4982 37.3104 36.6782 37.7264 36.6782 38.2784C36.6782 38.9584 36.4462 39.4784 35.9822 39.8384C35.5182 40.1984 34.8262 40.3784 33.9062 40.3784C33.4262 40.3784 32.9942 40.3344 32.6102 40.2464C32.2262 40.1664 31.9062 40.0744 31.6502 39.9704Z"
      fill="white"></path>
  </svg>